Coordinates
version=1
nRows=19
nColumns=24
inDegrees=yes

Units are S.I. units (second, meters, Newtons, ...)
Angles are in degrees.

endheader
time	pelvis_tilt	pelvis_list	pelvis_rotation	pelvis_tx	pelvis_ty	pelvis_tz	hip_flexion_r	hip_adduction_r	hip_rotation_r	knee_angle_r	ankle_angle_r	subtalar_angle_r	mtp_angle_r	hip_flexion_l	hip_adduction_l	hip_rotation_l	knee_angle_l	ankle_angle_l	subtalar_angle_l	mtp_angle_l	lumbar_extension	lumbar_bending	lumbar_rotation
      5.75500000	     -8.68828922	      5.28120060	      3.58186532	     -0.74275719	     -0.00622506	     -0.30031652	     25.13639093	    -11.73683706	    -12.40019012	    -66.06657532	     -3.81837728	     10.80776612	     -7.95310016	     13.93690900	     11.31644711	     14.97828865	    -14.10879149	     -0.24811042	     -9.08297542	      3.29082077	      7.61316077	     -7.76345372	      1.91059866
      5.76000000	     -8.54898690	      5.06345652	      3.88518592	     -0.73778548	     -0.00556731	     -0.30089869	     25.60821971	    -11.64737376	    -12.69268131	    -65.79331399	     -3.06963407	     10.80514772	     -7.97785466	     13.30267567	     11.16906331	     15.58586051	    -13.92079687	     -0.06059966	     -9.30570476	      2.80115445	      7.42250465	     -7.58647307	      1.33354939
      5.76500000	     -8.41396944	      4.83887842	      4.09572921	     -0.73287629	     -0.00496875	     -0.30137944	     26.10649416	    -11.49480017	    -12.87281097	    -65.46425818	     -2.29328028	     10.83767312	     -8.10439760	     12.69239308	     10.98244230	     16.07936130	    -13.74452331	      0.19525950	     -9.49048605	      2.28493833	      7.24055517	     -7.37477304	      0.91508892
      5.77000000	     -8.28152584	      4.63080405	      4.28268964	     -0.72806067	     -0.00442116	     -0.30178307	     26.61318895	    -11.33005364	    -13.00394616	    -65.08258464	     -1.51431459	     10.83201441	     -8.36559766	     12.09917491	     10.79207023	     16.53319125	    -13.57741075	      0.48300006	     -9.58010810	      1.80547597	      7.04683745	     -7.18313666	      0.53207196
      5.77500000	     -8.12659386	      4.45795635	      4.38819936	     -0.72310072	     -0.00388229	     -0.30214803	     27.09118123	    -11.16963162	    -13.06380586	    -64.66193334	     -0.54037204	     10.88762807	     -9.30233439	     11.43910587	     10.61228126	     16.91017900	    -13.34464022	      0.85256930	     -9.69213685	      1.00241303	      6.87039013	     -6.99954024	      0.28674405
      5.78000000	     -8.07743825	      4.24191847	      4.59155119	     -0.71830705	     -0.00349424	     -0.30255948	     27.64917526	    -10.99659025	    -13.19087883	    -64.13290309	      0.09820752	     10.87691501	     -9.30827606	     10.96032005	     10.39148079	     17.14041278	    -13.16508386	      1.07278364	     -9.61872511	      1.05796576	      6.77636946	     -6.80413019	     -0.13616800
      5.78500000	     -7.93452635	      4.03726368	      4.76420127	     -0.71352282	     -0.00302100	     -0.30290760	     28.08387947	    -10.79864583	    -13.28318875	    -63.51963045	      0.73430941	     10.83031541	     -9.46860410	     10.35444468	     10.15655054	     17.41836815	    -12.93426878	      1.25960531	     -9.60409188	      1.08422319	      6.57662907	     -6.61037644	     -0.51571180
      5.79000000	     -7.79035529	      3.84549275	      4.92459760	     -0.70868155	     -0.00258732	     -0.30326842	     28.49401835	    -10.61162135	    -13.36737659	    -62.84301833	      1.37620450	     10.81179494	     -9.71314848	      9.73099031	      9.92219253	     17.64209385	    -12.66673923	      1.45201905	     -9.57161292	      1.14123079	      6.39271582	     -6.41843418	     -0.86164707
      5.79500000	     -7.62845698	      3.67056071	      5.07407033	     -0.70392365	     -0.00218191	     -0.30354030	     28.87572182	    -10.40938974	    -13.39859140	    -62.10937803	      2.03995748	     10.79453670	    -10.09715623	      9.10010517	      9.68812983	     17.84576162	    -12.40667216	      1.63782434	     -9.49049011	      1.26059579	      6.16984415	     -6.25236770	     -1.20735946
      5.80000000	     -7.58513026	      3.52240082	      5.16282181	     -0.69917603	     -0.00200318	     -0.30376200	     29.40185768	    -10.20579687	    -13.32357596	    -61.33755765	      2.60905560	     10.81543265	    -10.17501955	      8.60554328	      9.48314528	     17.97470755	    -12.15297497	      1.84392300	     -9.45790952	      1.36441075	      6.08716513	     -6.11013881	     -1.43336993
      5.80500000	     -7.37662657	      3.39967400	      5.32125099	     -0.69437286	     -0.00166874	     -0.30396402	     29.70100714	    -10.04841326	    -13.34358425	    -60.60892236	      4.09050893	     10.98532514	    -13.24551849	      7.90307103	      9.27054210	     18.08532516	    -11.81430008	      1.82863285	     -9.40076358	      2.13076047	      5.81846545	     -5.99697588	     -1.79371188
      5.81000000	     -7.25567770	      3.26149302	      5.48742250	     -0.68962720	     -0.00145953	     -0.30425941	     30.05707759	     -9.88627460	    -13.34838849	    -59.67848344	      4.57324504	     11.00560265	    -13.25346576	      7.32007594	      9.06881450	     18.24419139	    -11.55421779	      2.06682461	     -9.25919329	      2.21114377	      5.64381619	     -5.86222743	     -2.13259701
      5.81500000	     -7.07023304	      3.13033733	      5.64679461	     -0.68491457	     -0.00119706	     -0.30442619	     30.31359046	     -9.69172940	    -13.31289683	    -58.66808773	      5.05367423	     11.00517876	    -13.43006603	      6.67323196	      8.85299954	     18.39874999	    -11.29703924	      2.27618165	     -9.10595591	      2.35794997	      5.38600869	     -5.75032532	     -2.47628683
      5.82000000	     -6.88106965	      3.01419307	      5.79704293	     -0.68021581	     -0.00101547	     -0.30459311	     30.55081520	     -9.50822453	    -13.25520654	    -57.62007786	      5.59423180	     11.04795648	    -13.82725065	      6.02448557	      8.65215384	     18.55325555	    -11.04072360	      2.47707291	     -9.00938015	      2.56809731	      5.12043693	     -5.64129100	     -2.81360517
      5.82500000	     -6.72775631	      2.89336142	      5.98362086	     -0.67547751	     -0.00086083	     -0.30475975	     30.78234778	     -9.33867696	    -13.22766618	    -56.49683187	      6.11526597	     11.12105783	    -14.31250572	      5.41244613	      8.44855858	     18.74655247	    -10.78174274	      2.62447574	     -8.93445393	      2.74542504	      4.90121358	     -5.54082508	     -3.14687909
      5.83000000	     -6.49632118	      2.87136348	      6.05353752	     -0.67068300	     -0.00075578	     -0.30480864	     30.94680810	     -9.20310465	    -13.02698118	    -55.43094281	      7.21521795	     11.44062662	    -16.39597348	      4.68452376	      8.33154739	     18.86517309	    -10.47562690	      2.65825261	     -9.07080808	      2.98853632	      4.60557690	     -5.51340140	     -3.34774430
      5.83500000	     -6.54503246	      2.73942257	      6.25066150	     -0.66603792	     -0.00092866	     -0.30495000	     31.36662594	     -9.02397339	    -12.93251631	    -54.19079015	      7.50727138	     11.47465793	    -16.50016089	      4.35259628	      8.15444666	     19.10814385	    -10.33892124	      2.88072721	     -9.03380634	      3.04698205	      4.59757885	     -5.41850782	     -3.67289786
      5.84000000	     -6.33555739	      2.63507207	      6.50673267	     -0.66135024	     -0.00081639	     -0.30508829	     31.42889720	     -8.89144512	    -12.94554078	    -52.86584523	      7.89168578	     11.53757435	    -16.99488291	      3.70467806	      7.97020270	     19.44997445	    -10.14793896	      3.07209294	     -9.03015210	      3.00826391	      4.29514851	     -5.35064376	     -4.11622138
      5.84500000	     -6.23024653	      2.60049745	      6.61831932	     -0.65655731	     -0.00093490	     -0.30516550	     31.64490190	     -8.77240454	    -12.75290042	    -51.66333864	      9.20722185	     11.88153125	    -20.36727723	      3.14255306	      7.88580408	     19.82139687	     -9.96784201	      3.30470972	     -9.32108685	      2.28659735	      4.13336215	     -5.32081595	     -4.32872148
